<mxfile host="app.diagrams.net" agent="Mozilla/5.0 (Windows NT 10.0; Win64; x64) AppleWebKit/537.36 (KHTML, like Gecko) Chrome/138.0.0.0 Safari/537.36" version="28.0.7">
  <diagram name="Page-1" id="mCHTtf2Oad6Zhs1pn6fg">
    <mxGraphModel dx="1042" dy="658" grid="1" gridSize="10" guides="1" tooltips="1" connect="1" arrows="1" fold="1" page="1" pageScale="1" pageWidth="850" pageHeight="1100" math="0" shadow="0">
      <root>
        <mxCell id="0" />
        <mxCell id="1" parent="0" />
        <mxCell id="4kdyGq4Hmax_bDUQ9V_1-4" value="&lt;b&gt;&lt;span style=&quot;background-color: light-dark(#ffffff, var(--ge-dark-color, #121212));&quot;&gt;&lt;u&gt;START&lt;/u&gt;&lt;/span&gt;&lt;/b&gt;" style="ellipse;whiteSpace=wrap;html=1;" vertex="1" parent="1">
          <mxGeometry x="360" y="60" width="120" height="80" as="geometry" />
        </mxCell>
        <mxCell id="4kdyGq4Hmax_bDUQ9V_1-5" value="&lt;b&gt;&lt;u&gt;PLAN&lt;/u&gt;&lt;/b&gt;" style="ellipse;whiteSpace=wrap;html=1;" vertex="1" parent="1">
          <mxGeometry x="360" y="170" width="120" height="80" as="geometry" />
        </mxCell>
        <mxCell id="4kdyGq4Hmax_bDUQ9V_1-17" style="edgeStyle=orthogonalEdgeStyle;rounded=0;orthogonalLoop=1;jettySize=auto;html=1;" edge="1" parent="1" source="4kdyGq4Hmax_bDUQ9V_1-8" target="4kdyGq4Hmax_bDUQ9V_1-10">
          <mxGeometry relative="1" as="geometry" />
        </mxCell>
        <mxCell id="4kdyGq4Hmax_bDUQ9V_1-18" style="edgeStyle=orthogonalEdgeStyle;rounded=0;orthogonalLoop=1;jettySize=auto;html=1;" edge="1" parent="1" source="4kdyGq4Hmax_bDUQ9V_1-8" target="4kdyGq4Hmax_bDUQ9V_1-11">
          <mxGeometry relative="1" as="geometry" />
        </mxCell>
        <mxCell id="4kdyGq4Hmax_bDUQ9V_1-21" style="edgeStyle=orthogonalEdgeStyle;rounded=0;orthogonalLoop=1;jettySize=auto;html=1;" edge="1" parent="1" source="4kdyGq4Hmax_bDUQ9V_1-8">
          <mxGeometry relative="1" as="geometry">
            <mxPoint x="420" y="600" as="targetPoint" />
          </mxGeometry>
        </mxCell>
        <mxCell id="4kdyGq4Hmax_bDUQ9V_1-8" value="&lt;b&gt;&lt;u&gt;BUILD&lt;/u&gt;&lt;/b&gt;" style="ellipse;whiteSpace=wrap;html=1;" vertex="1" parent="1">
          <mxGeometry x="360" y="270" width="120" height="80" as="geometry" />
        </mxCell>
        <mxCell id="4kdyGq4Hmax_bDUQ9V_1-10" value="&lt;b&gt;&lt;u&gt;TEST&lt;/u&gt;&lt;/b&gt;" style="ellipse;whiteSpace=wrap;html=1;" vertex="1" parent="1">
          <mxGeometry x="360" y="380" width="120" height="80" as="geometry" />
        </mxCell>
        <mxCell id="4kdyGq4Hmax_bDUQ9V_1-11" value="&lt;b&gt;&lt;u&gt;DEPLOY&lt;/u&gt;&lt;/b&gt;" style="ellipse;whiteSpace=wrap;html=1;" vertex="1" parent="1">
          <mxGeometry x="360" y="490" width="120" height="80" as="geometry" />
        </mxCell>
        <mxCell id="4kdyGq4Hmax_bDUQ9V_1-24" style="edgeStyle=orthogonalEdgeStyle;rounded=0;orthogonalLoop=1;jettySize=auto;html=1;entryX=0.5;entryY=0;entryDx=0;entryDy=0;" edge="1" parent="1" source="4kdyGq4Hmax_bDUQ9V_1-12" target="4kdyGq4Hmax_bDUQ9V_1-13">
          <mxGeometry relative="1" as="geometry" />
        </mxCell>
        <mxCell id="4kdyGq4Hmax_bDUQ9V_1-25" value="" style="edgeStyle=orthogonalEdgeStyle;rounded=0;orthogonalLoop=1;jettySize=auto;html=1;" edge="1" parent="1" source="4kdyGq4Hmax_bDUQ9V_1-12" target="4kdyGq4Hmax_bDUQ9V_1-11">
          <mxGeometry relative="1" as="geometry" />
        </mxCell>
        <mxCell id="4kdyGq4Hmax_bDUQ9V_1-12" value="&lt;b&gt;&lt;u&gt;RELESE&lt;/u&gt;&lt;/b&gt;" style="ellipse;whiteSpace=wrap;html=1;" vertex="1" parent="1">
          <mxGeometry x="360" y="610" width="120" height="80" as="geometry" />
        </mxCell>
        <mxCell id="4kdyGq4Hmax_bDUQ9V_1-13" value="&lt;b&gt;&lt;u&gt;MONITER&lt;/u&gt;&lt;/b&gt;" style="ellipse;whiteSpace=wrap;html=1;" vertex="1" parent="1">
          <mxGeometry x="360" y="760" width="120" height="80" as="geometry" />
        </mxCell>
        <mxCell id="4kdyGq4Hmax_bDUQ9V_1-15" value="" style="endArrow=classic;html=1;rounded=0;exitX=0.5;exitY=1;exitDx=0;exitDy=0;" edge="1" parent="1" source="4kdyGq4Hmax_bDUQ9V_1-4">
          <mxGeometry width="50" height="50" relative="1" as="geometry">
            <mxPoint x="430" y="319.2" as="sourcePoint" />
            <mxPoint x="420" y="170" as="targetPoint" />
            <Array as="points" />
          </mxGeometry>
        </mxCell>
        <mxCell id="4kdyGq4Hmax_bDUQ9V_1-22" value="" style="endArrow=classic;html=1;rounded=0;exitX=0.5;exitY=1;exitDx=0;exitDy=0;entryX=0.5;entryY=0;entryDx=0;entryDy=0;" edge="1" parent="1" source="4kdyGq4Hmax_bDUQ9V_1-5" target="4kdyGq4Hmax_bDUQ9V_1-8">
          <mxGeometry width="50" height="50" relative="1" as="geometry">
            <mxPoint x="500" y="280" as="sourcePoint" />
            <mxPoint x="420" y="260" as="targetPoint" />
          </mxGeometry>
        </mxCell>
      </root>
    </mxGraphModel>
  </diagram>
</mxfile>
